<?xml version="1.0" encoding="utf-8"?>
<!-- Generator: Adobe Illustrator 20.1.0, SVG Export Plug-In . SVG Version: 6.00 Build 0)  -->
<svg version="1.1" id="Layer_1" xmlns="http://www.w3.org/2000/svg" xmlns:xlink="http://www.w3.org/1999/xlink" x="0px" y="0px"
	 viewBox="0 0 50 50" style="enable-background:new 0 0 50 50;" xml:space="preserve">
<style type="text/css">
	.st0{fill:#FFFFFF;}
</style>
<path class="st0" d="M25,0C11.2,0,0,11.2,0,25c0,13.8,11.2,25,25,25c13.8,0,25-11.2,25-25C50,11.2,38.8,0,25,0z M29.2,29.7
	c0.5,0.5,0.9,2.1,0.9,2.8l0,6.6h-3.8h-3.8c0,0,0-2.2,0-3.8c-5.2,1.1-6.6-2.8-6.6-2.8c-0.9-1.9-1.9-2.8-1.9-2.8c-1.9-1.1,0-0.9,0-0.9
	c1.9,0,2.8,1.9,2.8,1.9c1.7,2.8,4.6,2.4,5.7,1.9c0-0.9,0.4-2.4,0.9-2.8c-4.1-0.5-7.6-2.8-7.6-7.6c0-4.7,1-5.7,1.9-6.6
	c-0.2-0.5-1-2.2,0-4.7c0,0,1.9,0,3.8,2.8c0.9-0.9,3.8-0.9,4.7-0.9c0.9,0,3.8,0,4.7,0.9c1.9-2.8,3.8-2.8,3.8-2.8c1,2.5,0.2,4.3,0,4.7
	c0.9,0.9,1.9,1.9,1.9,6.6C36.8,26.9,33.3,29.3,29.2,29.7z"/>
</svg>
