<?xml version="1.0" encoding="utf-8"?>
<!-- Generator: Adobe Illustrator 20.1.0, SVG Export Plug-In . SVG Version: 6.00 Build 0)  -->
<svg version="1.1" id="Layer_1" xmlns="http://www.w3.org/2000/svg" xmlns:xlink="http://www.w3.org/1999/xlink" x="0px" y="0px"
	 viewBox="0 0 50 50" style="enable-background:new 0 0 50 50;" xml:space="preserve">
<style type="text/css">
	.st0{fill:#FFFFFF;}
</style>
<path class="st0" d="M39,36.8V27c0-5.2-2.8-7.7-6.5-7.7c-3,0-4.3,1.7-5.1,2.8v-2.4h-5.7c0.1,1.6,0,17,0,17h5.7v-9.5
	c0-0.5,0-1,0.2-1.4c0.4-1,1.3-2.1,2.9-2.1c2,0,2.9,1.6,2.9,3.8v9.1L39,36.8L39,36.8z M15.8,17.4c2,0,3.2-1.3,3.2-2.9
	c0-1.7-1.2-2.9-3.2-2.9s-3.2,1.3-3.2,2.9C12.6,16.1,13.9,17.4,15.8,17.4L15.8,17.4z M25,50C11.2,50,0,38.8,0,25C0,11.2,11.2,0,25,0
	s25,11.2,25,25C50,38.8,38.8,50,25,50z M18.6,36.8v-17H13v17H18.6z"/>
</svg>
