<?xml version="1.0" encoding="utf-8"?>
<!-- Generator: Adobe Illustrator 20.1.0, SVG Export Plug-In . SVG Version: 6.00 Build 0)  -->
<svg version="1.1" id="Layer_1" xmlns="http://www.w3.org/2000/svg" xmlns:xlink="http://www.w3.org/1999/xlink" x="0px" y="0px"
	 viewBox="0 0 50 50" style="enable-background:new 0 0 50 50;" xml:space="preserve">
<style type="text/css">
	.st0{fill:#FFFFFF;}
</style>
<path class="st0" d="M25,0C11.2,0,0,11.2,0,25s11.2,25,25,25s25-11.2,25-25S38.8,0,25,0z M37.7,18.5c0,0.3,0,0.6,0,0.9
	C37.7,28,31.1,38,19.1,38C15.4,38,11.9,36.9,9,35c0.5,0.1,1,0.1,1.6,0.1c3.1,0,5.9-1,8.1-2.8c-2.9-0.1-5.3-2-6.1-4.6
	c0.4,0.1,0.8,0.1,1.2,0.1c0.6,0,1.2-0.1,1.7-0.2c-3-0.6-5.3-3.3-5.3-6.4c0,0,0-0.1,0-0.1c0.9,0.5,1.9,0.8,3,0.8
	c-1.8-1.2-2.9-3.2-2.9-5.5c0-1.2,0.3-2.3,0.9-3.3c3.2,4,8.1,6.6,13.5,6.9c-0.1-0.5-0.2-1-0.2-1.5c0-3.6,2.8-6.5,6.4-6.6l0,0
	c0.1,0,0.1,0,0.2,0c1.9,0,3.6,0.8,4.8,2.1c1.5-0.3,2.9-0.8,4.2-1.6c-0.5,1.5-1.5,2.8-2.9,3.6c1.3-0.2,2.6-0.5,3.8-1
	C40.1,16.4,39,17.5,37.7,18.5z"/>
</svg>
